<svg xmlns="http://www.w3.org/2000/svg" viewBox="0 0 100 100" fill="none">
  <circle cx="25" cy="30" r="8" fill="#4CAF50"/>
  <path d="M25 22 Q20 15 15 20 Q20 25 25 22" fill="#66BB6A"/>
  <path d="M25 38 L25 50" stroke="#8BC34A" stroke-width="2"/>
  
  <circle cx="50" cy="25" r="6" fill="#FF9800"/>
  <path d="M50 19 Q47 14 44 17 Q47 21 50 19" fill="#FFB74D"/>
  <path d="M50 31 L50 40" stroke="#FFA726" stroke-width="1.5"/>
  
  <circle cx="75" cy="35" r="10" fill="#2196F3"/>
  <path d="M75 25 Q70 18 65 23 Q70 28 75 25" fill="#64B5F6"/>
  <path d="M75 45 L75 55" stroke="#42A5F5" stroke-width="2"/>
  
  <ellipse cx="40" cy="65" rx="15" ry="8" fill="#8BC34A"/>
  <ellipse cx="60" cy="70" rx="12" ry="6" fill="#66BB6A"/>
  
  <path d="M10 80 Q30 75 50 80 Q70 75 90 80" stroke="#4CAF50" stroke-width="2" fill="none"/>
  
  <text x="50" y="92" text-anchor="middle" font-family="Arial" font-size="7" fill="#2E7D32">BIODIVERSITY</text>
</svg>